<svg xmlns="http://www.w3.org/2000/svg" xmlns:xlink="http://www.w3.org/1999/xlink" width="985.054" height="1014.698" viewBox="0 0 985.054 1014.698"><defs><linearGradient id="a" x1="-0.25" y1="0.294" x2="1.25" y2="0.706" gradientUnits="objectBoundingBox"><stop offset="0" stop-color="#72c4b9"/><stop offset="1" stop-color="#72c4b9" stop-opacity="0.545"/></linearGradient><linearGradient id="b" x1="-0.25" y1="0.278" x2="1.25" y2="0.722" gradientUnits="objectBoundingBox"><stop offset="0" stop-color="#e9f4f2"/><stop offset="1" stop-color="#4eada0"/></linearGradient></defs><g transform="translate(-617.762 145.014)"><path d="M2404.8,3874.61q1.042,1.746,2.24,3.623c49.555,77.43,286.509,459.328,45.785,630.045-214.856,152.37-97.427,301.138-275.5,324.821C1999.6,4856.736,1513.278,4613.193,1596,4290c70.2-274.259,375.113,54.526,464.188-395.153,25.312-127.783,120.09-53.25,120.09-53.25S2361.193,3801.341,2404.8,3874.61Z" transform="translate(-957 -3965)" opacity="0.302" fill="url(#a)"/><path d="M2394.177,3903q1.121,1.639,2.407,3.4c53.23,72.706,307.763,431.3,49.182,591.6-230.8,143.072-104.656,282.762-295.943,305-190.912,22.194-652.689-166.529-563.831-470,75.407-257.523,342.318,11.241,438-411,27.189-119.984,129-50,129-50S2347.332,3834.2,2394.177,3903Z" transform="translate(-957 -3965)" fill="url(#b)"/></g></svg>