<?xml version="1.0" standalone="no"?>
<svg
  width="600"
  height="600"
  viewBox="0 0 600 600"
  xmlns="http://www.w3.org/2000/svg"
>
  <g transform="translate(300,300)">
    <path d="M90.2,-128.5C128.9,-115.5,180.4,-110.7,205.6,-85.2C230.9,-59.7,229.8,-13.4,198.6,10.8C167.5,35,106.4,37.2,73.4,48.9C40.4,60.7,35.4,82.2,16.2,115.1C-2.9,148.1,-36.2,192.5,-77.1,206.3C-117.9,220,-166.3,203,-167.9,165.4C-169.5,127.8,-124.3,69.6,-131.2,19.1C-138,-31.3,-196.8,-74,-195,-93.7C-193.3,-113.4,-131,-110.1,-88.4,-121.3C-45.8,-132.6,-22.9,-158.3,1.4,-160.5C25.8,-162.8,51.5,-141.5,90.2,-128.5Z" fill="#0693e3" />
  </g>
</svg>
  