<svg xmlns="http://www.w3.org/2000/svg" xmlns:xlink="http://www.w3.org/1999/xlink" width="1862.398" height="966.239" viewBox="0 0 1862.398 966.239">
  <defs>
    <style>
      .cls-1 {
        fill: #1f232c;
      }

      .cls-2 {
        fill: url(#linear-gradient);
      }

      .cls-3 {
        fill: url(#linear-gradient-2);
      }
    </style>
    <linearGradient id="linear-gradient" x1="-0.25" y1="0.79" x2="1.25" y2="0.21" gradientUnits="objectBoundingBox">
      <stop offset="0" stop-color="#fc5050"/>
      <stop offset="0.56" stop-color="#7e4ca8"/>
      <stop offset="1" stop-color="#0048ff"/>
    </linearGradient>
    <linearGradient id="linear-gradient-2" x1="0.937" y1="1.25" x2="0.063" y2="-0.25" gradientUnits="objectBoundingBox">
      <stop offset="0" stop-color="#e9b49f"/>
      <stop offset="0.091" stop-color="#e9b49f"/>
      <stop offset="0.435" stop-color="#bc457f"/>
      <stop offset="1" stop-color="#6f3fbf"/>
    </linearGradient>
  </defs>
  <g id="bg" transform="translate(-540.963 -6381.761)">
    <rect id="Rectangle_599" data-name="Rectangle 599" class="cls-1" width="1440" height="900" transform="translate(957 6448)"/>
    <path id="Shape_701" data-name="Shape 701" class="cls-2" d="M933.181,7212.463a325.9,325.9,0,0,1-65.063-10.18,416.2,416.2,0,0,1-66.436-23.486,478.575,478.575,0,0,1-64.833-35.487,494.714,494.714,0,0,1-60.252-46.195q-3.933-3.528-7.781-7.136a463.691,463.691,0,0,1-44.9-48.473,413.273,413.273,0,0,1-42.126-63.737c-25.188-47.343-38.834-96.7-40.558-146.695a470.513,470.513,0,0,1,16.476-139.345,501.122,501.122,0,0,1,53.1-125.271,482.872,482.872,0,0,1,37.4-54.123,439.652,439.652,0,0,1,43.1-46.72,381.261,381.261,0,0,1,47.658-38.024,318.482,318.482,0,0,1,51.062-28.021c23.779-10.254,46.761-16.143,68.306-17.5,20.969-1.325,40.545,1.635,58.184,8.8a120.513,120.513,0,0,1,42.778,29.662c12.328,13.159,22.575,29.476,30.459,48.5,26.061,62.879,27.153,102.515,28.029,134.363.679,24.706,1.219,44.221,13.056,66.224,12.932,24.038,27.2,42.424,42.387,56.668,41.239,38.675,89.313,46.823,136.226,54.781,15.495,2.629,31.515,5.347,46.9,9.132,17.266,4.248,31.96,9.438,44.929,15.868,21.534,10.678,40.082,25.44,53.639,42.686a116.2,116.2,0,0,1,17.054,29.458,98.541,98.541,0,0,1,6.823,33.82,145.5,145.5,0,0,1-4,36.215,202.912,202.912,0,0,1-11.871,34.982c-8.674,19.779-20.842,40.469-37.2,63.252-21.863,30.448-43.294,54.794-65.516,74.43-40.905,36.148-93.087,62.1-155.095,77.148a544.445,544.445,0,0,1-86.446,13.385c-16.382,1.255-33.231,1.884-50.372,1.884Q950.913,7213.326,933.181,7212.463ZM790.813,6401.372c-147.415,63.563-253.871,248.27-247.618,429.641,3.433,99.642,55.236,190.716,127.723,258.684,75.444,70.745,173.289,116.467,262.354,120.806,96.232,4.691,230.841-7.3,325.633-91.064,22.113-19.537,43.446-43.777,65.222-74.1,36.311-50.568,53.552-94.161,52.71-133.266-1.065-49.447-40.176-86.271-76.422-104.245-28.619-14.191-60.474-19.6-91.285-24.822-32.127-5.451-65.347-11.086-96.163-26.548a171.969,171.969,0,0,1-44.42-31.879c-14.894-14.722-27.794-32.395-39.433-54.032-12.06-22.416-12.6-42.133-13.291-67.1-.871-31.687-1.956-71.122-27.879-133.667-9.032-21.793-21.215-39.91-36.016-53.789a117.1,117.1,0,0,0-36.141-23.3,126.074,126.074,0,0,0-47.719-8.915C844.042,6383.768,817.981,6389.657,790.813,6401.372Zm124.98,788.753a297.153,297.153,0,0,1-51.169-7.275,370.15,370.15,0,0,1-52.357-16.293,428.128,428.128,0,0,1-51.855-24.562,459.553,459.553,0,0,1-89.976-65.693,425.842,425.842,0,0,1-45.671-50.139c-25.583-33.1-44.712-68.4-56.857-104.936a300.214,300.214,0,0,1-15.366-83.528,430.666,430.666,0,0,1,14.834-129.619,457.845,457.845,0,0,1,49.387-116.207c21.255-35.458,46.533-66.809,75.131-93.181,28.893-26.642,59.888-47,92.12-60.52,22.03-9.236,43.274-14.493,63.142-15.627,19.4-1.106,37.476,1.713,53.742,8.378a111.877,111.877,0,0,1,39.35,27.363c11.361,12.114,20.842,27.144,28.183,44.67,24.241,58.188,25.5,94.794,26.51,124.207.148,4.322.288,8.406.494,12.415.891,17.213,3.25,31.965,11.88,48.007,11.937,22,25.079,38.877,39.055,51.98,38.061,35.69,82.327,43.469,125.527,51.065,28.576,5.023,58.122,10.218,84.748,23.618,19.8,9.959,36.847,23.66,49.289,39.622a107.88,107.88,0,0,1,15.652,27.267,91.593,91.593,0,0,1,6.244,31.274,135.175,135.175,0,0,1-3.712,33.461,188.162,188.162,0,0,1-10.957,32.328c-8.013,18.3-19.243,37.429-34.336,58.475-20.163,28.112-39.957,50.615-60.511,68.79-37.87,33.5-86.142,57.532-143.477,71.439a501.882,501.882,0,0,1-79.957,12.351c-14.953,1.135-30.325,1.7-45.959,1.7Q932.524,7190.959,915.792,7190.125ZM784.777,6439.984c-138.106,57.9-237.1,228.855-230.273,397.643a298.221,298.221,0,0,0,15.267,82.984c19.9,59.859,56.621,112.033,101.4,154.024,72.771,68.245,166.845,109.615,244.715,113.53,88.936,4.443,213.369-6.553,301.123-84.168,20.442-18.079,40.138-40.475,60.216-68.464,33.472-46.678,49.382-86.94,48.641-123.085-.936-45.588-36.828-79.712-70.1-96.445-26.367-13.271-54.461-18.211-84.2-23.439-29.561-5.2-60.129-10.573-88.536-24.922a160.509,160.509,0,0,1-40.982-29.454c-13.756-13.563-25.679-29.811-36.454-49.673-8.806-16.366-11.211-31.359-12.112-48.838-.21-4.025-.351-8.118-.5-12.449-1-29.253-2.254-65.662-26.356-123.517-8.395-20.038-19.656-36.715-33.295-49.5a108.5,108.5,0,0,0-33.168-21.469,117.4,117.4,0,0,0-44.776-8.413C833.442,6424.326,809.633,6429.562,784.777,6439.984Zm113.626,727.8a275.185,275.185,0,0,1-47.154-6.769,342.541,342.541,0,0,1-48.216-15.037,396.015,396.015,0,0,1-47.73-22.607,424.178,424.178,0,0,1-83.153-60.688,391.429,391.429,0,0,1-41.628-45.617c-23.524-30.319-41.121-62.638-52.3-96.054a279.626,279.626,0,0,1-14.37-76.688,394.012,394.012,0,0,1,13.374-119.9,416.415,416.415,0,0,1,45.639-107.142,381.472,381.472,0,0,1,69.659-85.51c26.8-24.362,55.562-42.865,85.472-54.993,19.4-7.864,38.108-12.449,55.622-13.626,17.168-1.155,33.242.954,47.777,6.274a102.384,102.384,0,0,1,38.352,25.018c11.062,11.352,20.266,25.631,27.354,42.446,22.477,53.309,23.871,86.872,24.992,113.84.159,3.844.31,7.477.516,11.046.779,13.479,2.671,28.112,11.172,43.773,40.558,74.7,96.427,84.864,150.454,94.689,26.247,4.775,53.391,9.711,77.764,22.195,18.073,9.239,33.612,21.881,44.938,36.562a99.354,99.354,0,0,1,14.251,25.074,84.6,84.6,0,0,1,5.666,28.723c.364,18.785-4.167,39.1-13.465,60.382-7.35,16.824-17.644,34.389-31.473,53.7-18.461,25.775-36.614,46.432-55.5,63.149-34.836,30.843-79.2,52.958-131.862,65.728a459.137,459.137,0,0,1-73.465,11.315c-13.525,1.018-27.422,1.527-41.554,1.527Q914.132,7168.6,898.4,7167.788ZM565.817,6844.242a277.644,277.644,0,0,0,14.271,76.152c18.258,54.582,51.85,102.211,92.822,140.632,67.026,62.85,153.813,101.067,225.592,104.8,81.639,4.2,195.9-5.8,276.612-77.273,18.774-16.619,36.833-37.168,55.207-62.823,30.635-42.787,45.213-79.717,44.57-112.905-.808-41.728-33.476-73.153-63.781-88.646-24.118-12.35-49.912-17.041-77.222-22.008-39.785-7.236-80.563-14.656-115.634-47.54-12.956-12.15-25.132-27.772-36.2-48.148-8.685-16-10.615-30.89-11.406-44.6-.206-3.587-.357-7.225-.518-11.079-1.114-26.81-2.5-60.177-24.84-113.161-7.718-18.311-17.914-33.291-30.167-44.784-33.052-30.991-81.126-36.673-136.386-14.267C652.466,6529.8,558.937,6690.413,565.817,6844.242ZM778.738,6478.6l-.369-.909Zm102.276,666.854a253.258,253.258,0,0,1-43.142-6.266,314.46,314.46,0,0,1-44.074-13.78,374.607,374.607,0,0,1-85.331-47.533,384.66,384.66,0,0,1-34.606-28.8,358.168,358.168,0,0,1-37.583-41.094c-21.465-27.545-37.525-56.876-47.739-87.176a257.88,257.88,0,0,1-13.374-69.849,356.216,356.216,0,0,1,11.814-110.182,374.05,374.05,0,0,1,41.894-98.073,342.9,342.9,0,0,1,64.234-77.84c24.739-22.084,51.276-38.729,78.877-49.474,17.648-6.87,34.633-10.836,50.484-11.787,15.609-.936,30.2,1.043,43.379,5.88a93.764,93.764,0,0,1,34.892,22.732c10.088,10.309,18.51,23.3,25.036,38.611,20.692,48.545,22.238,79.076,23.484,103.61.168,3.319.328,6.454.529,9.541.742,11.44,2.568,25.085,10.466,39.546,36.811,67.4,87.422,77.012,136.366,86.3,23.9,4.538,48.618,9.231,70.742,20.8,16.34,8.518,30.374,20.1,40.583,33.5A91.064,91.064,0,0,1,1220.8,6887a77.755,77.755,0,0,1,5.085,26.175c.308,17.108-3.819,35.605-12.259,54.975-6.689,15.345-16.045,31.348-28.607,48.925-16.76,23.44-33.277,42.251-50.493,57.507-31.8,28.194-72.254,48.387-120.243,60.018-31.958,7.745-66.8,11.643-103.888,11.644Q895.925,7146.243,881.015,7145.452ZM772.7,6517.212c-116.92,45.516-202.825,192.071-195.571,333.646a255.9,255.9,0,0,0,13.273,69.318c16.617,49.3,47.086,92.393,84.248,127.241,61.277,57.463,140.771,92.514,206.466,96.072,74.343,3.951,178.428-5.054,252.1-70.377,17.106-15.16,33.526-33.861,50.2-57.181,27.794-38.9,41.045-72.5,40.5-102.725-.677-37.873-30.128-66.6-57.463-80.85-21.867-11.431-45.344-15.889-70.2-20.608-36.062-6.846-73.023-13.867-104.846-43.7-11.766-11.031-22.825-25.179-32.88-43.591-8.083-14.794-9.947-28.7-10.7-40.357-.2-3.1-.36-6.244-.531-9.572-1.235-24.376-2.776-54.714-23.328-102.939-7.189-16.865-16.531-30.605-27.734-41.11-17.754-16.648-40.188-25.179-66.151-25.179C812.462,6505.3,793.216,6509.226,772.7,6517.212Zm90.926,605.9c-25.277-1.436-51.866-7.589-79.031-18.292a340.941,340.941,0,0,1-77.181-43,350.471,350.471,0,0,1-31.707-26.365,325.881,325.881,0,0,1-33.574-36.606c-19.41-24.762-33.97-51.093-43.276-78.26a237.694,237.694,0,0,1-12.38-63.012,318.758,318.758,0,0,1,10.24-100.463,332.113,332.113,0,0,1,38.137-89,304.42,304.42,0,0,1,58.812-70.173c22.674-19.8,47-34.593,72.3-43.955,15.895-5.881,31.151-9.231,45.34-9.958a97.673,97.673,0,0,1,38.973,5.485,85.115,85.115,0,0,1,31.437,20.453c9.115,9.271,16.762,20.976,22.727,34.781,18.917,43.806,20.621,71.314,21.988,93.416.172,2.782.335,5.409.529,8,1.038,14.042,4.047,24.933,9.758,35.313,33.065,60.1,78.416,69.157,122.271,77.914,21.559,4.3,43.853,8.755,63.727,19.408a110.217,110.217,0,0,1,36.234,30.439,82.722,82.722,0,0,1,11.45,20.688,70.835,70.835,0,0,1,4.505,23.627c.25,15.432-3.469,32.109-11.055,49.564-6.026,13.867-14.445,28.308-25.74,44.15-15.06,21.1-29.937,38.068-45.487,51.866-28.759,25.543-65.309,43.815-108.627,54.309-28.647,6.939-59.846,10.432-93.039,10.432Q877.5,7123.88,863.626,7123.114ZM588.44,6857.469a235.7,235.7,0,0,0,12.275,62.49c15.069,43.995,42.445,82.537,75.779,113.8,55.573,52.114,127.732,84.018,187.236,87.394,67.049,3.7,160.962-4.306,227.591-63.482,15.437-13.7,30.218-30.557,45.192-51.538,24.956-35,36.873-65.277,36.433-92.547-.467-28.889-19.589-56.2-51.149-73.052-19.618-10.515-40.78-14.741-63.183-19.214-32.333-6.456-65.478-13.078-94.05-39.864-10.571-9.912-20.512-22.581-29.561-39.03-5.854-10.64-8.938-21.78-10-36.116-.194-2.607-.355-5.24-.529-8.027-1.356-21.95-3.048-49.268-21.833-92.757-23.669-54.8-73.233-72.918-135.984-49.7C659.086,6595.629,580.8,6728.127,588.44,6857.469Zm178.218-301.643-.344-.919Zm79.576,544.949c-22.682-1.358-46.522-6.92-70.867-16.532A307.476,307.476,0,0,1,706.3,7045.8a314.483,314.483,0,0,1-28.857-23.964,292.1,292.1,0,0,1-29.525-32.082c-17.354-21.985-30.387-45.326-38.742-69.373a216.346,216.346,0,0,1-11.384-56.17,281.7,281.7,0,0,1,8.654-90.745,290.331,290.331,0,0,1,34.363-79.935,266.187,266.187,0,0,1,53.391-62.5c20.616-17.525,42.745-30.459,65.767-38.441,14.131-4.9,27.649-7.64,40.172-8.143a88.715,88.715,0,0,1,34.573,5.092,76.718,76.718,0,0,1,27.989,18.18c8.148,8.241,15.019,18.656,20.418,30.96,17.168,39.1,19.024,63.595,20.516,83.274.168,2.224.328,4.324.5,6.407,1.018,11.917,3.895,21.794,9.056,31.089,29.316,52.8,69.4,61.294,108.167,69.51,20.1,4.261,39.1,8.286,56.726,18.032a98.627,98.627,0,0,1,31.877,27.379,74.285,74.285,0,0,1,10.05,18.5,63.921,63.921,0,0,1,3.924,21.076c.192,13.756-3.122,28.614-9.851,44.156-5.362,12.391-12.844,25.269-22.875,39.377-13.356,18.767-26.6,33.885-40.476,46.222-25.722,22.894-58.363,39.245-97.01,48.6-25.346,6.136-52.911,9.223-82.217,9.223Q859.074,7101.518,846.235,7100.776ZM599.75,6864.083a214.252,214.252,0,0,0,11.279,55.66c13.449,38.716,37.7,72.708,67.218,100.391,49.834,46.73,114.707,75.487,168.1,78.684,59.752,3.453,143.491-3.56,203.078-56.588,13.767-12.239,26.91-27.25,40.183-45.895,22.119-31.112,32.7-58.055,32.362-82.368-.357-25.619-17.115-50.012-44.831-65.259-17.376-9.6-36.226-13.6-56.185-17.829-28.6-6.062-57.919-12.277-83.236-36.015-9.378-8.792-18.2-19.985-26.245-34.466-5.3-9.546-8.252-19.674-9.291-31.874-.181-2.093-.339-4.2-.509-6.428-1.479-19.529-3.321-43.833-20.355-82.633-21.344-48.619-64.212-64.608-120.706-45.02C674.5,6624.3,590.784,6733.321,599.75,6864.083Zm160.862-269.639-.326-.927Zm68.232,484c-20.085-1.282-41.181-6.253-62.7-14.772a274.024,274.024,0,0,1-60.965-33.894,279.584,279.584,0,0,1-25.994-21.552c-27.77-26.039-48.531-56.495-59.69-88.047a194.882,194.882,0,0,1-10.39-49.329,245.161,245.161,0,0,1,7.042-81.03,249.005,249.005,0,0,1,30.573-70.861,228.213,228.213,0,0,1,47.967-54.834c18.57-15.247,38.512-26.325,59.276-32.927,24.958-7.937,46.877-8.491,65.154-1.65,18.638,6.977,33,21.467,42.674,43.064,15.448,34.47,17.458,55.962,19.075,73.231.152,1.633.3,3.174.451,4.713a68.361,68.361,0,0,0,8.346,26.861c25.565,45.5,60.379,53.427,94.046,61.1,17.67,4.022,34.358,7.823,49.747,16.67a87.056,87.056,0,0,1,27.517,24.321c7.823,10.875,11.857,22.593,11.993,34.827.246,21.784-9.126,45.776-28.654,73.345-11.66,16.429-23.261,29.7-35.469,40.582-22.687,20.243-51.421,34.672-85.4,42.89a304.072,304.072,0,0,1-71.418,8.015Q840.628,7079.157,828.844,7078.438Zm-74.285-445.376c-77.941,24.784-152.929,120.445-143.5,237.628a192.835,192.835,0,0,0,10.282,48.831c11.335,32.051,32.748,62.438,59.8,87.8,41.374,38.8,95.937,65.847,147.824,69.157,52.458,3.205,126.025-2.814,178.564-49.693,12.1-10.778,23.605-23.944,35.176-40.252,19.279-27.219,28.534-50.832,28.293-72.19-.248-22.349-14.647-43.83-38.521-57.463-15.136-8.7-31.683-12.469-49.2-16.461-24.866-5.663-50.35-11.47-72.406-32.149a122.836,122.836,0,0,1-22.921-29.9,70.279,70.279,0,0,1-8.59-27.627c-.152-1.543-.3-3.087-.451-4.725-1.6-17.125-3.6-38.439-18.912-72.612-5.228-11.664-11.788-21.179-19.6-28.5-12.91-12.106-29.231-18.23-48.593-18.23C780.417,6626.676,767.977,6628.794,754.559,6633.062ZM811.452,7056.1c-17.487-1.2-35.835-5.581-54.539-13.008a240.685,240.685,0,0,1-52.858-29.344,244.55,244.55,0,0,1-23.2-19.189c-23.663-22.187-41.407-47.973-51.046-74.593a173.469,173.469,0,0,1-9.394-42.484,209.541,209.541,0,0,1,32.148-133.11,190.709,190.709,0,0,1,42.553-47.163c16.529-12.969,34.311-22.193,52.849-27.417,21.416-6.034,40.1-6.128,55.527-.279,16.016,6.075,28.453,18.529,36.963,37.019,13.794,29.965,15.96,48.495,17.7,63.385q.168,1.428.333,2.821a60.718,60.718,0,0,0,7.64,22.637c21.805,38.195,51.341,45.548,79.9,52.659,15.241,3.793,29.639,7.379,42.792,15.341a75.6,75.6,0,0,1,23.162,21.257c6.56,9.434,9.927,19.555,10.006,30.081.143,18.828-7.9,39.487-24.585,63.16-9.957,14.093-19.92,25.521-30.461,34.939-19.651,17.592-44.476,30.1-73.782,37.183a258.4,258.4,0,0,1-60.636,6.809Q822.174,7056.8,811.452,7056.1Zm-62.95-384.42c-69.8,19.665-136.06,101.952-126.131,205.617a171.474,171.474,0,0,0,9.287,42c9.775,27,28.013,52.67,51.019,74.242,36,33.756,83.671,57.483,128.9,60.6,45.166,2.954,108.56-2.073,154.052-42.8,10.43-9.318,20.3-20.638,30.169-34.609,16.44-23.325,24.364-43.611,24.223-62.018-.141-19.078-12.183-37.646-32.214-49.667-12.9-7.808-27.158-11.359-42.253-15.115-14.3-3.562-29.09-7.243-43-14.874-15.712-8.623-28.188-21.288-38.14-38.72a62.69,62.69,0,0,1-7.884-23.379c-.112-.929-.221-1.871-.333-2.827-1.724-14.75-3.868-33.11-17.532-62.791a75.45,75.45,0,0,0-16.628-23.819c-11.556-10.835-26.307-16.325-43.879-16.326A109.848,109.848,0,0,0,748.5,6671.679Zm45.555,362.084a157.068,157.068,0,0,1-46.381-11.194,206.873,206.873,0,0,1-44.752-24.8,210.59,210.59,0,0,1-20.368-16.8c-19.569-18.349-34.3-39.49-42.428-61.213a151.856,151.856,0,0,1-8.4-35.638,174.338,174.338,0,0,1,3.718-61.617,167.964,167.964,0,0,1,22.881-52.728,153.708,153.708,0,0,1,37.139-39.493,127.331,127.331,0,0,1,46.513-21.9c17.833-4.181,33.258-3.832,45.854,1.042,13.414,5.193,23.94,15.628,31.29,31.022,12.3,25.766,14.613,41.415,16.467,53.986l.069.473a54.466,54.466,0,0,0,6.933,18.423c18.064,30.932,42.331,37.7,65.8,44.243,12.8,3.569,24.893,6.941,35.808,13.992a64.782,64.782,0,0,1,18.79,18.211,45.411,45.411,0,0,1,8.025,25.316c.04,15.875-6.669,33.2-20.511,52.971a169.95,169.95,0,0,1-25.456,29.3c-16.63,14.955-37.546,25.559-62.164,31.511a211.317,211.317,0,0,1-49.642,5.605Q803.824,7034.481,794.058,7033.763ZM633.681,6883.9a149.85,149.85,0,0,0,8.29,35.18c8.234,22.019,23.314,43.017,42.285,60.809,30.627,28.719,71.406,49.083,109.941,51.917,37.793,2.781,90.941-1.191,129.539-35.9a168.154,168.154,0,0,0,25.159-28.967c13.6-19.426,20.2-36.384,20.158-51.842-.036-15.763-9.726-31.421-25.918-41.881-10.662-6.888-22.615-10.22-35.267-13.75-11.754-3.275-23.906-6.666-35.383-13.168-12.989-7.359-23.321-17.818-31.587-31.977a56.416,56.416,0,0,1-7.18-19.125l-.072-.473c-1.834-12.444-4.12-27.931-16.3-53.429-13.836-28.981-39.044-39.41-74.919-30.994C682.077,6724.459,623.336,6794.854,633.681,6883.9Zm108.752-173.6-.225-.956Zm34.229,301.125a132.676,132.676,0,0,1-38.216-9.433,173.742,173.742,0,0,1-36.652-20.243,176.261,176.261,0,0,1-17.651-14.486c-15.426-14.466-27.107-30.914-33.69-47.7a129.969,129.969,0,0,1-7.408-28.792c-4.989-34.454,2.439-68.411,20.911-95.618a117.69,117.69,0,0,1,31.736-31.826,103.026,103.026,0,0,1,40.322-16.339c14.367-2.454,26.178-1.709,36.11,2.276a44.4,44.4,0,0,1,14.349,9.314,58.015,58.015,0,0,1,11.317,15.79c10.271,20.405,13.15,32.744,15.042,42.707.942,4.961,4.3,11.035,6.225,14.214,14.28,23.622,33.224,29.757,51.546,35.69,10.434,3.381,20.286,6.571,28.987,12.795a53.685,53.685,0,0,1,14.419,15.151,38.3,38.3,0,0,1,6.034,20.558c-.065,12.927-5.443,26.919-16.438,42.778a136.178,136.178,0,0,1-20.445,23.66c-13.6,12.306-30.606,20.987-50.553,25.8a166.37,166.37,0,0,1-39.033,4.414Q785.281,7012.138,776.661,7011.425ZM644.987,6890.493a128.265,128.265,0,0,0,7.292,28.355c6.658,16.983,18.544,33.264,33.441,47.236,25.258,23.687,59.194,40.746,91.1,43.384,30.5,2.524,73.483-.458,105.018-29a134.331,134.331,0,0,0,20.152-23.324c10.76-15.522,16.025-29.154,16.087-41.671.071-12.7-7.084-25.126-19.629-34.1-8.455-6.046-18.166-9.192-28.447-12.522-9.175-2.971-18.662-6.044-27.681-11.4a71.165,71.165,0,0,1-24.943-25.15c-1.988-3.292-5.478-9.6-6.475-14.864-1.867-9.833-4.71-22.012-14.867-42.191-11.547-22.94-30.513-31.306-59.689-26.325C683.852,6757.882,634,6814.556,644.987,6890.493Zm91.359-141.572-.167-.967Zm22.914,240.165c-19.138-1.859-39.953-10.155-58.606-23.355a142.039,142.039,0,0,1-15.048-12.25c-11.234-10.535-19.821-22.265-24.831-34.111a107.562,107.562,0,0,1-6.414-21.939,115.305,115.305,0,0,1,1.784-50.845c4.192-15.629,11.651-29.523,21.572-40.179,14.5-15.571,33.085-22.968,52.355-20.838a36.869,36.869,0,0,1,26.075,2.063c8.129,3.931,14.959,10.875,20.3,20.641a158.872,158.872,0,0,1,9.805,21.875c1.273,3.368,2.37,6.276,3.667,8.88l.092.185.011.207c.1,2.093,2.258,5.165,3.993,7.631.552.782,1.072,1.521,1.5,2.189,10.452,16.3,24.018,21.713,37.135,26.95,8.143,3.25,15.835,6.321,22.354,11.819a43.108,43.108,0,0,1,10.035,12.085,31.5,31.5,0,0,1,4.031,15.788c-.177,9.847-4.337,20.808-12.366,32.578a102.239,102.239,0,0,1-15.44,18.019c-10.553,9.655-23.658,16.417-38.939,20.094a122.04,122.04,0,0,1-28.569,3.235Q766.664,6989.8,759.26,6989.085Zm-80.1-181.342c-20.349,21.856-29.112,56.085-22.865,89.328a105.743,105.743,0,0,0,6.294,21.537c5.056,11.957,13.711,23.511,24.5,33.63,19.893,18.654,47.053,32.437,72.36,34.894,23.229,2.256,56.049.251,80.491-22.108a100.192,100.192,0,0,0,15.144-17.678c7.808-11.448,11.855-22.048,12.024-31.508.172-9.427-4.7-19.027-13.369-26.336-6.273-5.289-13.822-8.3-21.811-11.495-6.57-2.622-13.362-5.333-19.879-9.494a58.81,58.81,0,0,1-18.187-18.222c-.4-.63-.913-1.354-1.449-2.119-1.928-2.74-4.107-5.834-4.337-8.455-1.3-2.644-2.4-5.539-3.66-8.883a157.062,157.062,0,0,0-9.691-21.625,52.805,52.805,0,0,0-10.044-13.28c-9.5-8.911-21.431-11.965-34.263-8.422l-.185.051-.188-.022a57.069,57.069,0,0,0-6.431-.366C707.231,6787.171,691.644,6794.332,679.157,6807.744Zm62.691,159c-13.789-1.693-28.829-7.741-42.352-17.034a107.209,107.209,0,0,1-12.572-10.088c-6.979-6.542-12.487-13.606-15.808-20.42a85.09,85.09,0,0,1-6.064-54.687c2.935-12.136,8.663-22.559,16.569-30.142a42,42,0,0,1,42.584-10.2,25.643,25.643,0,0,1,16.306,3.33c5.436,3.071,10.339,8,14.577,14.647,2.166,3.4,3.9,6.367,5.421,8.989a69.539,69.539,0,0,0,6.459,9.894l.217.253.016.335c.038.657,2.075,2.7,2.944,3.578a19.986,19.986,0,0,1,1.809,1.959c6.5,8.949,14.528,13.338,22.294,17.583,6.091,3.328,11.842,6.474,16.219,11.556,3.689,4.283,8.007,11.229,7.627,19.987-.3,6.976-3.084,14.5-8.284,22.36a68.96,68.96,0,0,1-10.434,12.382,59.894,59.894,0,0,1-27.33,14.383,78.988,78.988,0,0,1-18.381,2.079A97.282,97.282,0,0,1,741.847,6966.746Zm-58.867-130.954c-16.083,15.426-22.124,42.054-15.392,67.833a79.59,79.59,0,0,0,5.291,14.72c10.854,22.267,41.9,43.1,69.2,46.452,15.98,1.959,38.658.911,55.953-15.209a67.262,67.262,0,0,0,10.133-12.032c5-7.559,7.679-14.747,7.962-21.362.349-8.118-3.7-14.606-7.154-18.62-4.141-4.812-9.742-7.874-15.67-11.115-7.587-4.146-16.187-8.848-22.944-18.153a19.7,19.7,0,0,0-1.612-1.726c-1.887-1.9-3.189-3.285-3.462-4.5a72.544,72.544,0,0,1-6.477-9.959c-1.519-2.607-3.239-5.561-5.382-8.921a48.3,48.3,0,0,0-7.593-9.328c-6.512-6.107-13.927-8.814-21.574-7.73l-.215.031-.208-.063a44.119,44.119,0,0,0-12.854-1.979C700.662,6824.131,691.008,6828.094,682.981,6835.792Zm45.968,109.226c-11.531-1.039-22.034-6.088-28.809-10.14a80.635,80.635,0,0,1-13.452-10.008,39.986,39.986,0,0,1-5.173-5.742,42.349,42.349,0,0,1-4.471-8.259,49.763,49.763,0,0,1-3.578-27.362c1.387-8.279,5.168-15.43,10.649-20.136a24.8,24.8,0,0,1,15.314-6.042c6.182-.246,12.636,1.643,19.178,5.613,4,2.427,9.054,6.794,15.033,12.987a31.347,31.347,0,0,0,10.146,7.038l4.234,1.834a32.444,32.444,0,0,1,12.431,9.494,31.353,31.353,0,0,1,6.358,13.782,28.839,28.839,0,0,1-.858,14.119,32.231,32.231,0,0,1-8.451,13.373c-6.574,6.405-14.775,9.64-24.42,9.64Q731.055,6945.208,728.949,6945.019ZM685.4,6864.859c-11.033,9.472-13.722,28.083-6.541,45.256a40.438,40.438,0,0,0,4.255,7.875c6.533,9.143,26.676,23.332,46.012,25.074,10.852.976,19.937-2.019,27-8.906,7.384-7.2,10.493-16.335,8.75-25.729a30.2,30.2,0,0,0-17.633-21.829L743,6884.767a33.325,33.325,0,0,1-10.778-7.479c-1.861-1.925-3.551-3.589-5.081-5.023a60.709,60.709,0,0,0-9.557-7.645c-5.873-3.565-11.711-5.347-17.15-5.347A22.642,22.642,0,0,0,685.4,6864.859Z"/>
    <path id="Shape_699" data-name="Shape 699" class="cls-3" d="M2009.1,7149.01c-33.214-2.8-68.021-15.156-100.651-35.75a326.426,326.426,0,0,1-79.571-71.093,352.658,352.658,0,0,1-52.457-89.121,341.778,341.778,0,0,1-23.907-96.351c-3.1-32.652-1.048-63.881,6.1-92.815,6.474-26.2,15.23-52.338,23.7-77.618,9.552-28.514,19.431-58,25.979-87.479a149.52,149.52,0,0,1,31.315-64.357c14.384-17.158,33.056-31.507,55.5-42.648,42.411-21.046,97.219-30.339,158.5-26.87,57.813,3.274,117.929,18.074,169.267,41.681,29.107,13.379,56.356,32.233,80.989,56.027a347.315,347.315,0,0,1,58.136,74.24c14.885,25.384,26.467,52.487,33.5,78.381,6.871,25.305,9.3,49.009,7.02,68.549a107.85,107.85,0,0,1-14.073,41.5q-2.6,4.515-5.646,8.936c-9.647,14-22.475,27.067-38.123,38.846-35.956,27.071-63.141,62.535-91.924,100.078-35.692,46.559-76.146,99.33-142.248,148.246a141.843,141.843,0,0,1-49.17,23.531,151.954,151.954,0,0,1-37.983,4.7Q2016.306,7149.615,2009.1,7149.01Zm100.227-29.226c65.875-48.751,106.239-101.4,141.851-147.857,28.868-37.656,56.133-73.225,92.307-100.457,14.705-11.07,31.579-26.854,43.271-47.152a105.942,105.942,0,0,0,13.789-40.761c4.69-40.24-10.361-94.7-40.256-145.69-34.118-58.187-83.213-104.166-138.237-129.465-108.789-50.017-242.865-56.117-326.051-14.834-46.45,23.053-75.3,58.6-85.754,105.65-6.571,29.579-16.466,59.116-26.034,87.68-8.456,25.242-17.2,51.345-23.657,77.463-30.861,124.878,33.178,274.147,148.959,347.212C1980.8,7156.555,2055.5,7159.625,2109.331,7119.784Zm-95.994,4.384c-30.564-2.492-62.6-13.8-92.643-32.691a299.22,299.22,0,0,1-73.341-65.412,324.271,324.271,0,0,1-48.317-82.146,315.22,315.22,0,0,1-22-88.858c-2.848-30.113-.949-58.907,5.646-85.583,6-24.265,14.118-48.464,21.97-71.87,8.772-26.133,17.839-53.156,23.889-80.149a138.254,138.254,0,0,1,29.058-59.409c13.32-15.837,30.6-29.078,51.35-39.354,39.1-19.359,89.552-27.919,145.911-24.755,53.179,2.984,108.469,16.574,155.683,38.26,26.825,12.319,51.93,29.7,74.622,51.657a319.384,319.384,0,0,1,53.522,68.524c13.7,23.439,24.345,48.467,30.785,72.378,6.3,23.377,8.494,45.271,6.346,63.317a99.394,99.394,0,0,1-12.934,38.044q-2.453,4.264-5.347,8.44c-8.943,12.908-20.807,24.913-35.265,35.681-33.331,24.894-58.512,57.667-85.171,92.364-32.8,42.684-69.969,91.062-130.468,135.916a131.053,131.053,0,0,1-45.237,21.754,139.959,139.959,0,0,1-35.34,4.416Q2019.76,7124.692,2013.337,7124.168Zm-103.5-603.685c-28.71,14.217-50.162,33.59-64.131,57.849a140.345,140.345,0,0,0-15.219,39.561c-6.072,27.1-15.156,54.169-23.941,80.351-7.841,23.368-15.949,47.528-21.927,71.713-28.491,115.274,30.467,252.771,137.138,319.831,65.511,41.2,134.178,43.868,183.69,7.131,60.275-44.689,97.356-92.95,130.073-135.527,26.748-34.81,52.009-67.69,85.56-92.751,13.631-10.148,29.285-24.679,40.1-43.463a97.5,97.5,0,0,0,12.657-37.338c4.417-37.117-9.369-87.378-36.873-134.45-31.382-53.706-76.573-96.1-127.257-119.374-55.642-25.559-118.548-38.612-176.589-38.615C1986.913,6495.4,1943.8,6503.668,1909.836,6520.484Zm107.738,578.843c-27.917-2.188-57.184-12.434-84.636-29.631a271.928,271.928,0,0,1-67.11-59.734,295.887,295.887,0,0,1-44.182-75.168,288.674,288.674,0,0,1-20.092-81.364c-2.593-27.576-.85-53.937,5.186-78.351,5.522-22.334,13.007-44.6,20.247-66.129,7.985-23.749,16.243-48.306,21.794-72.818a127.06,127.06,0,0,1,26.8-54.458c12.258-14.515,28.138-26.649,47.2-36.061,35.782-17.668,81.882-25.5,133.318-22.638,48.545,2.7,99.007,15.072,142.1,34.84a244.93,244.93,0,0,1,68.254,47.282,291.7,291.7,0,0,1,48.915,62.812,275.9,275.9,0,0,1,28.072,66.376c5.728,21.449,7.689,41.534,5.673,58.079a90.986,90.986,0,0,1-11.792,34.6q-2.315,4.018-5.051,7.944c-8.239,11.819-19.143,22.76-32.411,32.517-30.7,22.717-53.88,52.8-78.417,84.648-29.9,38.808-63.787,82.8-118.684,123.584a120.234,120.234,0,0,1-41.3,19.98,128.124,128.124,0,0,1-32.706,4.134Q2023.21,7099.769,2017.574,7099.327ZM1923.666,6547.4c-26.437,13.056-46.191,30.872-59.047,53.2a128.85,128.85,0,0,0-13.893,35.974c-5.572,24.611-13.848,49.219-21.848,73.016-7.229,21.492-14.7,43.715-20.2,65.967-22.212,89.858,14.161,222.892,125.32,292.449,59.734,37.422,122.375,39.683,167.563,6.048,54.674-40.623,88.474-84.494,118.294-123.2,24.627-31.964,47.885-62.152,78.813-85.037,12.554-9.232,26.99-22.505,36.939-39.778a89.05,89.05,0,0,0,11.518-33.913c4.084-33.489-8.747-80.7-33.486-123.21-28.641-49.219-69.936-88.03-116.276-109.285a394.191,394.191,0,0,0-160.945-35.123C1994.192,6524.5,1954.749,6532.054,1923.666,6547.4Zm98.15,527.087c-25.269-1.883-51.765-11.072-76.628-26.571a244.717,244.717,0,0,1-60.88-54.056,267.592,267.592,0,0,1-40.044-68.193,262.3,262.3,0,0,1-18.186-73.869c-2.341-25.039-.751-48.965,4.728-71.121,5.044-20.4,11.9-40.73,18.522-60.388,7.2-21.362,14.65-43.455,19.7-65.484a115.869,115.869,0,0,1,24.547-49.51c11.2-13.192,25.682-24.217,43.054-32.767,32.467-15.979,74.213-23.075,120.724-20.522,43.906,2.412,89.545,13.572,128.507,31.423,42.367,19.4,80.081,54.918,106.189,100.008a250.215,250.215,0,0,1,25.361,60.375c5.155,19.523,6.884,37.795,5,52.839a82.387,82.387,0,0,1-10.635,31.083q-2.186,3.792-4.785,7.495a127.4,127.4,0,0,1-29.543,29.369c-28.189,20.518-49.4,47.99-71.863,77.075-26.952,34.9-57.5,74.458-106.7,111.114A109.438,109.438,0,0,1,2061.51,7071a116.257,116.257,0,0,1-30.075,3.855Q2026.668,7074.852,2021.816,7074.49Zm-84.307-500.167c-24.169,11.894-42.225,28.157-53.966,48.543a117.233,117.233,0,0,0-12.571,32.39c-5.074,22.124-12.535,44.263-19.753,65.674-6.614,19.618-13.453,39.9-18.477,60.23-20.48,82.83,16.376,204.625,113.5,265.063,53.959,33.644,110.572,35.5,151.438,4.968,48.983-36.492,79.442-75.934,106.315-110.733,22.548-29.2,43.848-56.783,72.269-77.468,18-13.1,40.281-35.292,44.155-66.578,3.815-30.413-7.719-73.316-30.1-111.971-25.9-44.734-63.3-79.962-105.294-99.192a356.283,356.283,0,0,0-145.309-31.635C2001.47,6553.612,1965.714,6560.44,1937.509,6574.322Zm88.548,475.328c-22.62-1.581-46.349-9.712-68.621-23.513a217.522,217.522,0,0,1-54.651-48.376,239.221,239.221,0,0,1-35.91-61.218,235.815,235.815,0,0,1-16.278-66.376c-2.088-22.5-.65-44,4.268-63.888,4.571-18.477,10.788-36.871,16.8-54.654,6.415-18.978,13.052-38.6,17.6-58.142a104.649,104.649,0,0,1,22.3-44.562c10.134-11.874,23.224-21.79,38.9-29.475,29.154-14.29,66.54-20.653,108.126-18.4,39.271,2.124,80.083,12.071,114.92,28.005h0c38.03,17.379,71.844,49.312,95.214,89.922a224.465,224.465,0,0,1,22.647,54.374c4.583,17.593,6.079,34.054,4.32,47.6a73.764,73.764,0,0,1-9.489,27.615q-2.043,3.553-4.5,7.01a113.187,113.187,0,0,1-26.681,26.212c-25.6,18.326-44.822,43.133-65.173,69.4-24.038,31.017-51.28,66.174-94.856,98.745-17.72,13.3-38.11,20.018-60.707,20.018Q2030.219,7049.941,2026.056,7049.65Zm-74.708-448.413c-21.9,10.736-38.262,25.441-48.89,43.9a105.706,105.706,0,0,0-11.248,28.8c-4.569,19.636-11.219,39.3-17.65,58.325-6,17.747-12.206,36.1-16.757,54.5-18.435,74.549,14.558,183.835,101.683,237.681,48.187,29.863,98.772,31.315,135.316,3.885,43.361-32.408,70.515-67.451,94.472-98.367,20.444-26.383,39.755-51.3,65.59-69.8,16.2-11.6,36.267-31.328,39.852-59.466,3.547-27.337-6.691-65.933-26.72-100.73-23.163-40.249-56.658-71.893-94.312-89.1a318.332,318.332,0,0,0-129.67-28.146C2008.745,6582.715,1976.674,6588.823,1951.348,6601.237Zm78.949,423.57c-19.974-1.276-40.934-8.348-60.614-20.454a190.4,190.4,0,0,1-48.423-42.7,213.325,213.325,0,0,1-46.143-113.123,170.571,170.571,0,0,1,3.811-56.656c4.093-16.556,9.679-33.017,15.084-48.937,5.631-16.583,11.453-33.733,15.494-50.787a93.489,93.489,0,0,1,20.047-39.615c9.076-10.551,20.771-19.359,34.761-26.184,25.833-12.6,58.868-18.229,95.523-16.283,34.636,1.836,70.619,10.569,101.33,24.586,33.685,15.357,63.6,43.709,84.235,79.837a198.835,198.835,0,0,1,19.936,48.374c4.012,15.667,5.272,30.316,3.644,42.368a65.333,65.333,0,0,1-8.346,24.155q-1.9,3.307-4.208,6.517a99.09,99.09,0,0,1-23.824,23.055c-23.008,16.125-40.236,38.265-58.478,61.7-21.118,27.138-45.054,57.9-83.013,86.386a87.886,87.886,0,0,1-54.166,17.967Q2033.655,7025.022,2030.3,7024.808Zm-65.106-396.658c-19.639,9.577-34.3,22.729-43.818,39.254a94.244,94.244,0,0,0-9.924,25.211c-4.064,17.146-9.9,34.341-15.544,50.969-5.391,15.878-10.966,32.3-15.041,48.771-16.392,66.267,12.74,163.048,89.863,210.3,42.412,26.086,86.966,27.134,119.187,2.807,37.748-28.331,61.6-58.977,82.638-86.016,18.337-23.562,35.655-45.817,58.907-62.114,20.351-14.265,32.975-32.859,35.548-52.358,3.274-24.259-5.667-58.548-23.337-89.487-20.426-35.764-50.02-63.824-83.332-79.009a280.379,280.379,0,0,0-114.029-24.659C2016.023,6611.816,1987.638,6617.2,1965.191,6628.15Zm69.356,371.82c-17.325-.972-35.518-6.986-52.608-17.4a163.322,163.322,0,0,1-42.2-37.02,185.524,185.524,0,0,1-40.1-98.655,149.258,149.258,0,0,1,3.349-49.424c3.621-14.639,8.582-29.173,13.377-43.23,4.843-14.187,9.848-28.857,13.386-43.42a82.285,82.285,0,0,1,17.8-34.67,94.893,94.893,0,0,1,30.622-22.892c22.514-10.907,51.188-15.8,82.917-14.161a247.716,247.716,0,0,1,87.737,21.17c29.335,13.329,55.341,38.1,73.224,69.746a173.376,173.376,0,0,1,17.219,42.375c3.445,13.733,4.481,26.573,3.008,37.133a57.406,57.406,0,0,1-7.264,20.714c-5.567,9.667-13.99,18.517-24.829,25.9-20.412,13.918-34.947,32.5-51.774,54.006-18.2,23.262-38.824,49.625-71.174,74.037a76.9,76.9,0,0,1-47.634,15.924Q2037.1,7000.113,2034.547,6999.97Zm-55.5-344.909c-17.381,8.42-30.35,20.019-38.759,34.618a82.885,82.885,0,0,0-8.592,21.62c-3.556,14.649-8.576,29.362-13.431,43.595-4.783,14.015-9.732,28.507-13.333,43.064-14.349,57.982,10.919,142.253,78.042,182.912,36.635,22.31,75.163,22.955,103.063,1.727,32.144-24.253,52.685-50.511,70.808-73.675,16.227-20.741,31.552-40.33,52.221-54.424,17.758-12.109,28.853-28.176,31.24-45.246,2.965-21.2-4.7-51.188-19.984-78.249-17.677-31.281-43.361-55.756-72.315-68.912a242.5,242.5,0,0,0-98.392-21.172C2023.307,6640.917,1998.617,6645.583,1979.048,6655.061Zm59.741,320.044c-14.682-.656-30.1-5.6-44.585-14.307-26.173-15.607-47.293-41.048-59.468-71.632-11.352-28.528-14.145-59.9-7.663-86.086,3.175-12.817,7.531-25.517,11.746-37.8,4.018-11.7,8.17-23.807,11.2-35.784a70.9,70.9,0,0,1,15.464-29.7,82.064,82.064,0,0,1,26.406-19.592c19.19-9.241,43.526-13.419,70.375-12.082a209.214,209.214,0,0,1,74.24,17.765c25,11.308,47.1,32.5,62.248,59.664,13.135,23.565,19.587,49.725,16.838,68.271a49.054,49.054,0,0,1-6.12,17.287c-4.835,8.395-12.2,15.994-21.69,22.223-17.868,11.731-30.548,27.8-45.228,46.394-15.255,19.331-32.548,41.241-59.169,61.592a66.253,66.253,0,0,1-41.156,13.861Q2040.519,6975.183,2038.789,6975.105ZM1992.754,6682c-15.047,7.245-26.264,17.25-33.527,29.861a70.91,70.91,0,0,0-7.274,18.121c-3.049,12.055-7.216,24.2-11.246,35.942-4.2,12.242-8.544,24.9-11.7,37.631-12.3,49.7,9.1,121.464,66.219,155.528,30.783,18.493,63.284,18.734,86.943.647,26.422-20.2,43.631-42,58.816-61.242,14.788-18.737,27.56-34.917,45.7-46.825,15.2-9.978,24.762-23.522,26.929-38.136,5.132-34.605-22.678-100.826-77.934-125.823h0A204.7,204.7,0,0,0,2052.866,6670C2030.5,6670,2009.459,6673.961,1992.754,6682Zm50.3,268.232c-12.014-.354-24.667-4.235-36.589-11.221-21.614-12.666-39.047-33.628-49.086-59.024-9.34-23.626-11.613-49.621-6.239-71.318,2.713-10.946,6.463-21.761,10.086-32.219,3.214-9.266,6.537-18.851,9.042-28.3,4.8-18.1,17.07-32.294,35.489-41.056,15.868-7.548,35.839-10.991,57.759-9.957a170.6,170.6,0,0,1,60.648,14.355h0c20.658,9.286,38.865,26.895,51.269,49.583,10.777,19.708,15.932,41.564,13.453,57.035a40.684,40.684,0,0,1-4.983,13.875,53.819,53.819,0,0,1-18.549,18.527c-15.279,9.495-26.056,23.014-38.533,38.668-12.321,15.458-26.282,32.977-47.309,49.258a55.269,55.269,0,0,1-34.613,11.819C2044.282,6950.264,2043.668,6950.255,2043.049,6950.237Zm-36.44-241.334c-12.792,6.086-22.326,14.542-28.482,25.233a59.488,59.488,0,0,0-5.933,14.531c-2.525,9.523-5.859,19.14-9.085,28.442-3.613,10.417-7.347,21.187-10.035,32.045-10.238,41.318,7.308,100.545,54.4,128.141,25.044,14.677,51.517,14.517,70.817-.427,20.836-16.134,34.722-33.556,46.971-48.924,12.592-15.8,23.469-29.445,39.04-39.119,12.634-7.852,20.665-18.869,22.613-31.022,2.411-15.057-2.659-36.423-13.232-55.765-12.2-22.308-30.075-39.609-50.338-48.719a165.909,165.909,0,0,0-67.052-14.415C2037.979,6698.9,2020.684,6702.208,2006.609,6708.9Zm40.7,216.473c-9.369-.043-19.255-2.861-28.589-8.151-17.072-9.676-30.826-26.147-38.729-46.381-7.318-18.734-9.065-39.359-4.79-56.586,2.26-9.117,5.421-18.078,8.477-26.744,2.4-6.794,4.877-13.821,6.835-20.714,4.115-14.5,14.193-25.849,29.141-32.83,24.92-11.638,61.957-10.38,92.165,3.125,16.319,7.264,30.629,21.3,40.294,39.5,8.416,15.855,12.269,33.407,10.059,45.8a32.364,32.364,0,0,1-3.845,10.483,40.7,40.7,0,0,1-15.417,14.811c-12.682,7.218-21.549,18.193-31.815,30.9-9.37,11.6-19.993,24.74-35.457,36.959a44.339,44.339,0,0,1-28.1,9.82Zm-26.81-189.6c-10.468,4.887-18.455,11.986-23.555,20.843a47.215,47.215,0,0,0-4.51,10.723c-1.977,6.952-4.465,14.008-6.873,20.831-3.04,8.623-6.185,17.537-8.423,26.561-8.016,32.309,5.98,80.015,42.567,100.75,19.539,11.074,39.474,10.528,54.7-1.5,15.291-12.082,25.837-25.132,35.141-36.648,10.395-12.863,19.372-23.975,32.381-31.38,10.064-5.728,16.558-14.22,18.285-23.908,2.138-11.979-1.641-29.039-9.856-44.521-9.457-17.817-23.429-31.532-39.347-38.615h0a128.136,128.136,0,0,0-51.45-10.9C2045.227,6728.017,2031.624,6730.584,2020.5,6735.78Zm10.493,159.645c-12.542-6.686-22.62-18.672-28.388-33.744-5.293-13.841-6.51-29.095-3.339-41.854a212.655,212.655,0,0,1,7-21.522c1.549-4.237,3.148-8.618,4.5-12.887,3.466-10.914,11.376-19.427,22.875-24.624,9.175-4.146,20.385-6.1,32.42-5.657a92.1,92.1,0,0,1,33.41,7.54c11.992,5.247,22.412,15.7,29.332,29.436,6.055,12.008,8.6,25.258,6.661,34.578a23.851,23.851,0,0,1-2.693,7.023,28.228,28.228,0,0,1-12.328,11.16c-10.07,4.875-17.011,13.3-25.046,23.048-6.395,7.758-13.641,16.554-23.621,24.728a33.71,33.71,0,0,1-21.636,7.884A40.7,40.7,0,0,1,2030.992,6895.425Zm3.47-132.812c-8.3,3.753-14.644,9.306-18.658,16.277a36.186,36.186,0,0,0-3.134,7.133c-1.369,4.307-2.977,8.709-4.532,12.966a211.883,211.883,0,0,0-6.936,21.319c-6.012,24.19,4.025,59.116,30.728,73.357,13.645,7.275,27.707,6.343,38.58-2.561,9.827-8.05,17.009-16.763,23.346-24.451,8.185-9.933,15.253-18.511,25.718-23.575,7.479-3.621,12.429-9.586,13.934-16.8,1.858-8.9-.629-21.645-6.487-33.27-6.715-13.32-16.784-23.445-28.35-28.505h0a90.4,90.4,0,0,0-35.849-7.4C2052.5,6757.1,2042.62,6758.926,2034.462,6762.612Zm8.839,111c-8.037-3.7-14.457-11.207-18.08-21.127-3.216-8.81-3.919-18.947-1.883-27.118a129.96,129.96,0,0,1,6.044-17.248c.564-1.395,1.121-2.774,1.66-4.144,2.9-7.378,8.722-13.074,16.833-16.477,11.471-4.812,26.879-4.524,39.252.731,7.679,3.23,14.211,10.116,18.394,19.39,3.687,8.175,4.923,17.125,3.229,23.357a15.678,15.678,0,0,1-1.556,3.759,16.206,16.206,0,0,1-9.282,7.312c-7.423,2.368-12.387,8.237-18.141,15.032a118.154,118.154,0,0,1-11.836,12.621,22.412,22.412,0,0,1-15.02,6.125A22.9,22.9,0,0,1,2043.3,6873.608Zm5.346-84.271a28.568,28.568,0,0,0-14.1,11.94,25.9,25.9,0,0,0-1.649,3.425c-.539,1.376-1.1,2.764-1.667,4.162a128.49,128.49,0,0,0-5.955,16.983c-3.946,15.805,2.83,38.563,18.859,45.949,7.834,3.61,15.814,2.336,22.473-3.59a116.965,116.965,0,0,0,11.64-12.419c5.948-7.029,11.088-13.1,19.057-15.645a13.983,13.983,0,0,0,9.52-9.69c3.047-11.214-4.37-33.608-20.471-40.386h0a52.373,52.373,0,0,0-20.221-4A45.622,45.622,0,0,0,2048.646,6789.336Zm7.317,62.474a9.281,9.281,0,0,1-6.115-4.384c-3.042-4.744-3.443-11.92-2.267-16.558a24.3,24.3,0,0,1,12.023-15.494c5.074-2.708,10.655-3.308,15.309-1.648,6.522,2.329,9.708,12.56,8,19.479a10.694,10.694,0,0,1-1.078,2.772,6.16,6.16,0,0,1-6.594,3.186c-4.914-.7-7.66,3.045-10.314,6.671-2.189,2.992-4.448,6.077-7.86,6.078A6.076,6.076,0,0,1,2055.963,6851.811Zm4.58-34.675a22.3,22.3,0,0,0-11.027,14.222c-1.042,4.12-.692,10.772,2.012,14.993a7.246,7.246,0,0,0,4.8,3.5c2.812.517,4.749-2.127,6.99-5.189,2.862-3.91,6.106-8.341,12.206-7.469,3.473.5,4.882-2.153,5.453-4.461,1.473-5.962-1.4-15.218-6.731-17.119a14.389,14.389,0,0,0-4.84-.808A18.961,18.961,0,0,0,2060.543,6817.135Z"/>
  </g>
</svg>
