<svg xmlns="http://www.w3.org/2000/svg" xmlns:xlink="http://www.w3.org/1999/xlink" width="1650.883" height="891.217" viewBox="0 0 1650.883 891.217">
  <defs>
    <style>
      .cls-1 {
        fill: url(#linear-gradient);
      }

      .cls-2 {
        fill: url(#linear-gradient-2);
      }

      .cls-3, .cls-7 {
        opacity: 0.302;
      }

      .cls-3 {
        fill: url(#linear-gradient-3);
      }

      .cls-4, .cls-5 {
        opacity: 0.22;
      }

      .cls-4 {
        fill: url(#linear-gradient-4);
      }

      .cls-5 {
        fill: url(#linear-gradient-5);
      }

      .cls-6 {
        fill: #5ca0fd;
      }

      .cls-7 {
        fill: url(#linear-gradient-6);
      }

      .cls-8 {
        fill: url(#linear-gradient-7);
      }
    </style>
    <linearGradient id="linear-gradient" x1="-0.25" y1="0.911" x2="1.25" y2="0.089" gradientUnits="objectBoundingBox">
      <stop offset="0" stop-color="#00a6eb"/>
      <stop offset="1" stop-color="#00eeca"/>
    </linearGradient>
    <linearGradient id="linear-gradient-2" x1="1.25" y1="1.085" x2="-0.25" y2="-0.085" gradientUnits="objectBoundingBox">
      <stop offset="0" stop-color="#50b9fc"/>
      <stop offset="1" stop-color="#7764fe"/>
    </linearGradient>
    <linearGradient id="linear-gradient-3" x1="-0.25" y1="0.866" x2="1.25" y2="0.134" gradientUnits="objectBoundingBox">
      <stop offset="0" stop-color="#0d3be3"/>
      <stop offset="1" stop-color="#31f3ff"/>
    </linearGradient>
    <linearGradient id="linear-gradient-4" x1="-0.25" y1="0.765" x2="1.25" y2="0.235" gradientUnits="objectBoundingBox">
      <stop offset="0" stop-color="#18ff4e"/>
      <stop offset="1" stop-color="#00eeca"/>
    </linearGradient>
    <linearGradient id="linear-gradient-5" y1="0.868" y2="0.132" xlink:href="#linear-gradient-4"/>
    <linearGradient id="linear-gradient-6" y1="0.883" y2="0.117" xlink:href="#linear-gradient-3"/>
    <linearGradient id="linear-gradient-7" x1="1.188" y1="1.25" x2="-0.188" y2="-0.25" gradientUnits="objectBoundingBox">
      <stop offset="0" stop-color="#658bfd"/>
      <stop offset="1" stop-color="#8033bb"/>
    </linearGradient>
  </defs>
  <g id="bg" transform="translate(-799.998 -10073.812)">
    <path id="Rectangle_788_copy_2" data-name="Rectangle 788 copy 2" class="cls-1" d="M904.75,10101.81l-.9,485.664,132.622,333.687c14.308,33,49.006,48.023,81.069,42.88l1332.339-194.849-2.489-659.354Z"/>
    <path id="Rectangle_788_copy" data-name="Rectangle 788 copy" class="cls-2" d="M905.75,10073.812l-.9,505.662,132.622,333.687c14.308,33,49.007,48.023,81.069,42.88l1332.339-214.848-2.489-659.354Z"/>
    <path id="Shape_790" data-name="Shape 790" class="cls-3" d="M1559,10568v317.015l-440.456,71.025c-32.064,5.144-66.762-9.883-81.071-42.88l-99.344-249.96Z"/>
    <path id="Rectangle_791" data-name="Rectangle 791" class="cls-4" d="M1402,10461l330-56.638v229L1402,10690Z"/>
    <path id="Rectangle_791_copy" data-name="Rectangle 791 copy" class="cls-5" d="M2001,10529l330-56.639v149L2001,10678Z"/>
    <path id="Shape_782" data-name="Shape 782" class="cls-6" d="M2399,10159l-1241-28-249,22-109,261,1594.1-259.771,4.9-.8"/>
    <path id="Shape_784" data-name="Shape 784" class="cls-7" d="M1925,10617l525.015-105.916.868,230.109-525.883,84.8Z"/>
    <line id="Shape_785" data-name="Shape 785" class="cls-6" y1="158" x2="939" transform="translate(860 10587)"/>
    <path id="Shape_782_copy" data-name="Shape 782 copy" class="cls-8" d="M1519.3,10298.784l-670.515,109.265c-.7-30.055-1.482-65.668-2.22-103.555L909,10155l249-22,361.761,8.162Z"/>
  </g>
</svg>
