<?xml version="1.0" encoding="UTF-8"?>
<svg width="2848px" height="1336px" viewBox="0 0 2848 1336" version="1.1" xmlns="http://www.w3.org/2000/svg" xmlns:xlink="http://www.w3.org/1999/xlink">
    <!-- Generator: Sketch 57.1 (83088) - https://sketch.com -->
    <title>lavanda-logo</title>
    <desc>Created with Sketch.</desc>
    <g id="Page-1" stroke="none" stroke-width="1" fill="none" fill-rule="evenodd">
        <g id="Lavanda-Logo" transform="translate(-17.000000, -22.000000)">
            <g id="lavanda-logo" transform="translate(17.000000, 22.210947)">
                <path d="M1399.92,734.314053 C1267.17,734.314053 1159.17,626.316053 1159.17,493.570053 C1159.17,421.675053 1179.31,305.980053 1275.22,163.084053 C1332.29,78.0710528 1388.72,10.8230528 1390.91,8.39405284 C1399.91,-1.64094716 1408.84,-3.86694716 1408.84,8.30905284 C1408.84,173.760053 1640.65,240.977053 1640.65,493.570053 C1640.65,626.316053 1532.66,734.314053 1399.92,734.314053" id="Fill-3" fill="#9272A5"></path>
                <path d="M0,999.539053 C0,994.689053 3.884,990.319053 9.218,990.319053 L41.24,990.319053 C46.093,990.319053 50.462,994.689053 50.462,999.539053 L50.462,1284.82905 L181.949,1284.82905 C187.282,1284.82905 191.166,1289.19905 191.166,1294.04905 L191.166,1320.72905 C191.166,1325.58905 187.282,1329.94905 181.949,1329.94905 L9.218,1329.94905 C3.884,1329.94905 0,1325.58905 0,1320.72905 L0,999.539053" id="Fill-4" fill="#1A1919"></path>
                <path d="M552.97,1214.47905 L493.29,1081.52905 L490.865,1081.52905 L431.671,1214.47905 L552.97,1214.47905 Z M333.176,1317.32905 L482.128,990.809053 C483.588,987.899053 487.951,985.469053 490.376,985.469053 L495.229,985.469053 C497.654,985.469053 502.022,987.899053 503.477,990.809053 L651.459,1317.32905 C654.373,1323.64905 650.489,1329.94905 643.212,1329.94905 L612.644,1329.94905 C606.821,1329.94905 603.427,1327.03905 601.487,1322.67905 L571.405,1256.19905 L412.746,1256.19905 C403.043,1278.51905 392.855,1300.34905 383.153,1322.67905 C381.694,1326.06905 377.815,1329.94905 371.991,1329.94905 L341.424,1329.94905 C334.146,1329.94905 330.267,1323.64905 333.176,1317.32905 L333.176,1317.32905 Z" id="Fill-5" fill="#1A1919"></path>
                <path d="M739.42,1002.93905 C736.511,996.629053 740.39,990.319053 747.674,990.319053 L782.119,990.319053 C785.998,990.319053 789.392,993.239053 790.362,995.659053 L897.104,1235.81905 L900.014,1235.81905 L1006.76,995.659053 C1007.73,993.239053 1010.65,990.319053 1015.01,990.319053 L1049.46,990.319053 C1056.74,990.319053 1060.62,996.629053 1057.71,1002.93905 L908.752,1329.45905 C907.297,1332.36905 904.388,1334.79905 900.509,1334.79905 L895.65,1334.79905 C892.256,1334.79905 888.862,1332.36905 887.407,1329.45905 L739.42,1002.93905" id="Fill-6" fill="#1A1919"></path>
                <path d="M1365.46,1214.47905 L1305.78,1081.52905 L1303.35,1081.52905 L1244.16,1214.47905 L1365.46,1214.47905 Z M1145.67,1317.32905 L1294.63,990.809053 C1296.08,987.899053 1300.45,985.469053 1302.87,985.469053 L1307.73,985.469053 C1310.15,985.469053 1314.52,987.899053 1315.97,990.809053 L1463.96,1317.32905 C1466.87,1323.64905 1462.99,1329.94905 1455.7,1329.94905 L1425.14,1329.94905 C1419.32,1329.94905 1415.92,1327.03905 1413.98,1322.67905 L1383.89,1256.19905 L1225.24,1256.19905 C1215.54,1278.51905 1205.35,1300.34905 1195.64,1322.67905 C1194.19,1326.06905 1190.31,1329.94905 1184.49,1329.94905 L1153.92,1329.94905 C1146.64,1329.94905 1142.76,1323.64905 1145.67,1317.32905 L1145.67,1317.32905 Z" id="Fill-7" fill="#1A1919"></path>
                <path d="M1626.49,994.199053 C1626.49,989.349053 1630.85,985.469053 1635.71,985.469053 L1647.84,985.469053 L1858.41,1229.02905 L1858.9,1229.02905 L1858.9,999.539053 C1858.9,994.689053 1862.78,990.319053 1868.12,990.319053 L1899.17,990.319053 C1904.02,990.319053 1908.38,994.689053 1908.38,999.539053 L1908.38,1326.06905 C1908.38,1330.91905 1904.02,1334.79905 1899.17,1334.79905 L1886.55,1334.79905 L1675.98,1084.43905 L1675.49,1084.43905 L1675.49,1320.72905 C1675.49,1325.58905 1671.61,1329.94905 1666.28,1329.94905 L1635.71,1329.94905 C1630.85,1329.94905 1626.49,1325.58905 1626.49,1320.72905 L1626.49,994.199053" id="Fill-8" fill="#1A1919"></path>
                <path d="M2227.02,1283.85905 C2298.34,1283.85905 2350.26,1231.45905 2350.26,1159.64905 C2350.26,1088.32905 2298.34,1036.40905 2227.02,1036.40905 L2162.97,1036.40905 L2162.97,1283.85905 L2227.02,1283.85905 Z M2113.49,999.539053 C2113.49,994.689053 2117.37,990.319053 2122.22,990.319053 L2233.82,990.319053 C2327.46,990.319053 2404.12,1066.48905 2404.12,1159.64905 C2404.12,1253.76905 2327.46,1329.94905 2233.82,1329.94905 L2122.22,1329.94905 C2117.37,1329.94905 2113.49,1325.58905 2113.49,1320.72905 L2113.49,999.539053 L2113.49,999.539053 Z" id="Fill-9" fill="#1A1919"></path>
                <path d="M2747.78,1214.47905 L2688.1,1081.52905 L2685.67,1081.52905 L2626.48,1214.47905 L2747.78,1214.47905 Z M2527.99,1317.32905 L2676.95,990.809053 C2678.4,987.899053 2682.76,985.469053 2685.19,985.469053 L2690.05,985.469053 C2692.47,985.469053 2696.84,987.899053 2698.29,990.809053 L2846.28,1317.32905 C2849.19,1323.64905 2845.31,1329.94905 2838.02,1329.94905 L2807.46,1329.94905 C2801.64,1329.94905 2798.24,1327.03905 2796.3,1322.67905 L2766.21,1256.19905 L2607.56,1256.19905 C2597.86,1278.51905 2587.67,1300.34905 2577.96,1322.67905 C2576.51,1326.06905 2572.63,1329.94905 2566.81,1329.94905 L2536.24,1329.94905 C2528.96,1329.94905 2525.08,1323.64905 2527.99,1317.32905 L2527.99,1317.32905 Z" id="Fill-10" fill="#1A1919"></path>
            </g>
        </g>
    </g>
</svg>