<?xml version="1.0" encoding="iso-8859-1"?>
<!-- Generator: Adobe Illustrator 18.1.1, SVG Export Plug-In . SVG Version: 6.00 Build 0)  -->
<svg version="1.1" id="Layer_1" xmlns="http://www.w3.org/2000/svg" xmlns:xlink="http://www.w3.org/1999/xlink" width="320" height="320"
	 viewBox="0 0 320 320" enable-background="new 0 0 320 320" xml:space="preserve">
<path fill="#56C1A8" d="M295.1,165.7h5v-15.2L286.4,139l-13.6,11.5v15.2h5l8.7-7.4L295.1,165.7z M300.7,170h-7.1l-7.1-6l-7.1,6h-7.1
	c-1,0-1.9-0.4-2.6-1.1c-0.7-0.7-1.1-1.7-1.1-2.7l0-16c0-1,0.4-1.9,1.1-2.6l0.2-0.2l16.7-14.1l16.9,14.2c0.7,0.7,1.1,1.6,1.1,2.6
	l0,16c0,1-0.4,1.9-1.1,2.7C302.7,169.7,301.7,170,300.7,170"/>
<path fill="#262638" d="M162.9,154.3c-1.7,0-3.3,0.3-4.9,0.9c-1.6,0.6-2.9,1.5-4,2.6c-0.3-0.4-0.7-0.8-1.2-1.2
	c-0.5-0.4-1-0.8-1.7-1.2c-0.6-0.3-1.4-0.6-2.2-0.9c-0.9-0.2-1.8-0.3-2.8-0.3c-1.7,0-3.3,0.3-4.5,1c-1.3,0.7-2.4,1.5-3.2,2.5
	l-0.3-2.8h-7.8v25.6h8.2v-13.8c0-1.6,0.5-3,1.4-4c1-1,2.2-1.6,3.8-1.6c1.4,0,2.4,0.4,3.1,1.2c0.7,0.9,1,2,1,3.6v14.6h7.9v-13.8
	c0-1.6,0.5-3,1.4-4c0.9-1,2.2-1.6,3.8-1.6c1.4,0,2.4,0.4,3.1,1.2c0.7,0.9,1,2,1,3.6v14.6h8.2v-15.8c0-3.2-0.9-5.7-2.7-7.6
	C168.9,155.2,166.3,154.3,162.9,154.3 M196.4,170.2c-0.3,0.8-0.7,1.5-1.2,2.2c-0.5,0.7-1.2,1.2-2,1.5c-0.8,0.4-1.7,0.6-2.7,0.6
	s-1.9-0.2-2.7-0.6c-0.8-0.4-1.5-0.9-2-1.5s-0.9-1.4-1.2-2.2c-0.3-0.8-0.4-1.7-0.4-2.6c0-0.9,0.2-1.7,0.4-2.6
	c0.3-0.8,0.7-1.5,1.2-2.2c0.5-0.6,1.2-1.2,2-1.5c0.8-0.4,1.7-0.6,2.7-0.6s1.9,0.2,2.7,0.6c0.8,0.4,1.5,0.9,2,1.5
	c0.5,0.6,1,1.4,1.2,2.2c0.3,0.8,0.4,1.7,0.4,2.6C196.8,168.5,196.7,169.4,196.4,170.2 M200.7,158c-1.2-1.2-2.7-2.2-4.5-2.9
	c-1.7-0.7-3.7-1.1-5.8-1.1c-2.1,0-4.1,0.3-5.8,1.1c-1.7,0.7-3.3,1.7-4.5,2.9c-1.2,1.2-2.2,2.7-2.9,4.3c-0.7,1.7-1,3.4-1,5.3
	s0.3,3.7,1,5.3c0.7,1.7,1.7,3.1,2.9,4.3c1.2,1.2,2.7,2.2,4.5,2.9c1.7,0.7,3.7,1.1,5.8,1.1c2.1,0,4.1-0.3,5.8-1.1
	c1.7-0.7,3.3-1.7,4.5-2.9c1.2-1.2,2.2-2.7,2.9-4.3c0.7-1.7,1-3.4,1-5.3s-0.3-3.7-1-5.3C202.9,160.7,202,159.2,200.7,158
	 M225.1,154.9l-6.1,16.8l-6.3-16.8h-9.1l11.2,25.6h7.7l11.4-25.6H225.1z M240.8,165c0-0.5,0.1-1.1,0.4-1.7c0.2-0.6,0.6-1.1,1.1-1.5
	c0.5-0.5,1.1-0.9,1.8-1.2c0.7-0.3,1.5-0.5,2.5-0.5c0.9,0,1.7,0.2,2.4,0.5c0.7,0.3,1.2,0.7,1.7,1.2c0.5,0.5,0.8,1,1,1.5
	c0.2,0.6,0.3,1.1,0.3,1.7H240.8z M259.8,168.7c0-2.2-0.3-4.1-0.9-5.9c-0.6-1.8-1.4-3.4-2.5-4.6c-1.1-1.3-2.5-2.3-4.1-3
	c-1.6-0.7-3.5-1.1-5.7-1.1c-2.2,0-4.1,0.4-5.8,1.1c-1.7,0.7-3.1,1.7-4.3,3c-1.2,1.2-2.1,2.7-2.7,4.3c-0.6,1.7-0.9,3.4-0.9,5.2
	c0,2.1,0.3,3.9,1,5.6c0.7,1.7,1.6,3.1,2.9,4.3c1.3,1.2,2.8,2.1,4.6,2.8c1.8,0.7,3.9,1,6.1,1c1.7,0,3.2-0.2,4.5-0.5
	c1.3-0.3,2.5-0.7,3.4-1.1c1-0.4,1.7-0.8,2.4-1.2c0.6-0.4,1-0.7,1.4-0.9l-3.4-5c-0.6,0.4-1.6,1-2.9,1.5s-3.1,0.9-5.2,0.9
	c-2.2,0-3.8-0.5-5.1-1.5c-1.2-1-1.9-2.2-1.9-3.6h19L259.8,168.7L259.8,168.7z M123.8,174.6c-0.6,0.3-1.3,0.4-2.2,0.4
	c-1.1,0-1.9-0.3-2.4-1c-0.5-0.7-0.8-1.6-0.8-2.9v-10.1h6.9v-6.2h-6.9v-7.7h-8.2v7.7h-4.2v6.2h4.2v9.7c0,1.6,0.2,3.1,0.5,4.4
	c0.3,1.3,0.9,2.4,1.7,3.4c0.8,0.9,1.8,1.7,3.1,2.2c1.3,0.5,2.9,0.8,4.8,0.8c2.7,0,5.3-0.8,7.6-2.4l-2.6-5.3
	C125,174.1,124.4,174.4,123.8,174.6 M31.1,154.4c-1.9,0-3.4,0.4-4.6,1.2c-1.2,0.8-2.1,1.6-2.8,2.5l-0.3-3.2h-7.8v25.6h8.2v-12.7
	c0-2.1,0.6-3.6,1.8-4.7s2.7-1.7,4.7-1.7c0.9,0,1.7,0.1,2.4,0.3l1.3-7c-0.3-0.1-0.7-0.2-1-0.2C32.4,154.4,31.9,154.4,31.1,154.4
	 M36.1,180.5h8.2v-25.6h-8.2V180.5z M66.1,169.1c0,1.7-0.5,2.9-1.4,3.7c-0.9,0.8-2.2,1.2-3.9,1.2c-1.8,0-3.1-0.5-4.1-1.6
	c-0.9-1.1-1.4-2.6-1.4-4.4c0-0.9,0.2-1.9,0.4-2.7c0.3-0.9,0.7-1.6,1.3-2.2c0.6-0.6,1.3-1.2,2.2-1.5c0.9-0.4,1.9-0.6,3.1-0.6
	c0.9,0,1.6,0,2.1,0.2c0.5,0.1,1,0.2,1.6,0.4L66.1,169.1L66.1,169.1z M62.6,154.3c-2.3,0-4.4,0.3-6.3,1c-1.9,0.7-3.5,1.6-4.8,2.8
	c-1.4,1.2-2.4,2.7-3.1,4.4c-0.7,1.7-1.1,3.6-1.1,5.7c0,1.8,0.3,3.4,0.8,4.9c0.5,1.5,1.3,2.8,2.4,3.9c1,1.1,2.3,1.9,3.8,2.6
	c1.5,0.6,3.2,0.9,5.1,0.9c2.8,0,5.1-0.7,6.8-2.1v1.8c0,1.9-0.5,3.3-1.6,4.3c-1,0.9-2.5,1.4-4.4,1.4c-1.4,0-2.7-0.2-4-0.5
	c-1.2-0.3-2.3-0.8-3.4-1.4l-3.3,5.6c1.5,0.9,3.1,1.6,4.9,2.1c1.8,0.4,3.9,0.7,6.2,0.7c4.2,0,7.5-1,10-3c2.4-2,3.6-5.2,3.6-9.4v-23.5
	c-1.6-0.5-3.4-1-5.4-1.4C66.9,154.5,64.8,154.3,62.6,154.3 M94.4,154.3c-1.5,0-2.9,0.3-4.4,0.8c-1.4,0.5-2.6,1.3-3.4,2.3v-13.3h-8.1
	v36.5h8.2v-13.8c0-0.8,0.1-1.5,0.3-2.2c0.2-0.7,0.6-1.3,1-1.8c0.5-0.5,1-0.9,1.7-1.2c0.7-0.3,1.5-0.5,2.3-0.5c1.3,0,2.4,0.4,3.2,1.2
	c0.8,0.9,1.2,2,1.2,3.5v14.6h8.1v-15.8c0-3.4-0.9-6-2.7-7.7C99.9,155.1,97.5,154.3,94.4,154.3 M43.2,144.9c-0.4-0.3-0.9-0.6-1.4-0.8
	c-0.5-0.2-1.1-0.3-1.6-0.3c-0.5,0-1.1,0.1-1.6,0.3c-0.5,0.2-1,0.4-1.4,0.8c-0.4,0.3-0.7,0.8-1,1.3c-0.2,0.5-0.4,1.1-0.4,1.8
	c0,0.7,0.1,1.2,0.4,1.7c0.2,0.5,0.6,0.9,1,1.3c0.4,0.3,0.9,0.6,1.4,0.8c0.5,0.2,1.1,0.3,1.6,0.3c0.5,0,1.1-0.1,1.6-0.3
	c0.5-0.2,1-0.4,1.4-0.8c0.4-0.3,0.7-0.8,1-1.3s0.4-1.1,0.4-1.7c0-0.7-0.1-1.2-0.4-1.8C44,145.6,43.7,145.2,43.2,144.9"/>
</svg>
