<svg id="Layer_1" data-name="Layer 1" xmlns="http://www.w3.org/2000/svg" viewBox="0 0 265.23 74.18"><defs><style>.cls-1{fill:none}.cls-2{fill:#0f143c}.cls-3{clip-path:url(#clip-path)}.cls-4{fill:#fff}</style><clipPath id="clip-path"><path class="cls-1" d="M0 0h265.23v74.18H0z"/></clipPath></defs><title>winkworth-logo</title><path class="cls-2" d="M0 0h265.23v74.18H0z"/><g class="cls-3"><path class="cls-4" d="M86.7 28c.76.88 1.67 2 3 3.53.59.72 1.11 1.38 1.53 1.91a15.07 15.07 0 0 0 2.9 3.09 3.13 3.13 0 0 0 .87.35 4.11 4.11 0 0 0 1.17.15v1.08h-5.69a25.16 25.16 0 0 1-2.67-2.9l-1.9-2.33c-.31-.41-2.13-2.61-2.13-2.61v3.13c0 2.4.66 3.42 2.21 3.42h.21v1.27h-8.72V36.8h.24c1.56 0 2.21-1 2.21-3.42V17l-2.45-1.27v-.87l5.25-2.08h1v16.5c1.34-1.31 2.52-2.55 3.25-3.35A3 3 0 0 0 88 24.09c0-.76-.55-1.09-1.76-1.13v-1.27h14.56V23c-1 0-1.42.4-1.42 1.27a4.32 4.32 0 0 0 .31 1.46l3.08 8.08 3.25-7.1-.77-2.08c-.51-1.34-.9-1.64-2.35-1.64h-.13v-1.3H111V23h-.63c-1 0-1.35.21-1.35.8a4.7 4.7 0 0 0 .31 1.24l3.08 8.34 2.91-7.25a3.53 3.53 0 0 0 .31-1.31c0-1.2-.76-1.79-2.32-1.82v-1.31h6.33V23c-1.59 0-1.73.19-2.8 2.8l-5 12.31h-1.55l-3.67-9.66-4.49 9.66h-1.64L95.4 24.94c-.57-1.49-.83-1.86-1.65-1.94h-.2A5.37 5.37 0 0 0 90 24.57 37.82 37.82 0 0 0 86.68 28m-64-15.26V14c-1.68 0-2.33.54-2.33 1.75a5.29 5.29 0 0 0 .44 1.92l4.59 13.7h.07l4.3-12.53-.55-1.56c-1-2.88-1.39-3.21-3.57-3.28v-1.26h11.11V14h-.3c-1.81.07-2.55.51-2.55 1.6a8 8 0 0 0 .59 2.4l4.7 13.26h.08l3.21-11.81a11 11 0 0 0 .47-2.73c0-1.82-1.06-2.66-3.36-2.69v-1.29h8.52V14h-.29a2.7 2.7 0 0 0-1.93.47c-.76.69-1.16 1.61-2.15 5.21l-5.06 18.41h-2.22l-.25-.8-1.87-5.65-3.86-10.78h-.07l-3.64 10.78L25 37.29l-.22.8h-2.1l-6.59-19.75c-1.13-3.31-1.75-4-4-4.29v-1.31zm30.59 20.65c0 2.4.62 3.42 2.18 3.42h.41v1.28H46.7v-1.28h.52c1.56 0 2.17-1 2.17-3.42v-8l-2.69-1.26v-.87l5.61-2h1zm10.03-9.22c1.87-2.08 3.39-2.91 5.37-2.91a4.89 4.89 0 0 1 5 3.32A10.55 10.55 0 0 1 74 28v5.39c0 2.4.65 3.42 2.21 3.42h.45v1.28h-8.8v-1.28H68c1.55 0 2.21-1 2.21-3.42v-5.68c0-2.74-1-4-3.22-4a5.15 5.15 0 0 0-3.67 2v7.69c0 2.4.62 3.42 2.18 3.42h.28v1.28h-9v-1.29h.48c1.56 0 2.18-1 2.18-3.42v-8.23l-2.66-1.27V23l5.4-1.75h1.12zm64.54 13c2.28 0 3.53-2.4 3.53-6.88 0-5-1.46-7.69-4.12-7.69-2.49 0-3.77 2.3-3.77 6.74v.4c.1 4.77 1.65 7.43 4.36 7.43m-.35-15.91a7.93 7.93 0 0 1 8.2 8.16c0 5.39-3.43 9.1-8.34 9.1s-8.09-3.46-8.09-8.55 3.46-8.71 8.24-8.71M143 26.1h.07a13 13 0 0 1 2.49-3.57 3.44 3.44 0 0 1 5.61.36 1.3 1.3 0 0 1 .31.84 7.69 7.69 0 0 1-.87 2.69 1.11 1.11 0 0 1-1 .73c-.56 0-.94-.22-1.91-1.16-.8-.8-1.21-1.06-1.76-1.06-1.39 0-2.6 2-2.6 4.29v4.16c0 2.62.62 3.42 2.73 3.42h.89v1.28h-10.41v-1.27h.69c1.52 0 2.18-1 2.18-3.42v-7.94l-2.87-1.31v-.87l5.57-2h.88zm15.45 5.65c0 3.32.52 4.19 2.42 4.19a7.89 7.89 0 0 0 3-.66v1.57l-.34.18a11 11 0 0 1-5.05 1.5 3.5 3.5 0 0 1-3.7-3.06 16.08 16.08 0 0 1-.14-3.13v-8.86H152V21.7a5.87 5.87 0 0 0 3.59-1.86 6.84 6.84 0 0 0 1.57-2.18h1.28v4h5.19v1.79h-5.19zm12.7-7.68a7.05 7.05 0 0 1 5.53-2.81 4.93 4.93 0 0 1 4.4 2.37c.62 1.13.79 2 .79 4.3v5.46c0 2.4.66 3.43 2.18 3.43h.38v1.27h-8.72v-1.28h.14c1.52 0 2.18-1 2.18-3.43v-5.31c0-3.06-1-4.38-3.12-4.38a4.78 4.78 0 0 0-3.77 2v7.73c0 2.4.62 3.43 2.18 3.43h.27v1.27h-9v-1.31h.49c1.55 0 2.18-1 2.18-3.43V16.92l-2.67-1.24v-.88l5.5-2.08h1zM51.37 14.73A2.25 2.25 0 1 1 49.14 17a2.23 2.23 0 0 1 2.23-2.23"/></g></svg>